HIERARCHY
ROOT Hips
{
	OFFSET 0.000000 0.000000 0.000000
	CHANNELS 6 Xposition Yposition Zposition Zrotation Yrotation Xrotation 
	JOINT LHipJoint
	{
		OFFSET 0.000000 0.000000 0.000000
		CHANNELS 3 Zrotation Yrotation Xrotation
		JOINT LeftUpLeg
		{
			OFFSET 1.363060 -1.794630 0.839290
			CHANNELS 3 Zrotation Yrotation Xrotation
			JOINT LeftLeg
			{
				OFFSET 2.448110 -6.726130 0.000000
				CHANNELS 3 Zrotation Yrotation Xrotation
				JOINT LeftFoot
				{
					OFFSET 2.562200 -7.039590 0.000000
					CHANNELS 3 Zrotation Yrotation Xrotation
					JOINT LeftToeBase
					{
						OFFSET 0.157640 -0.433110 2.322550
						CHANNELS 3 Zrotation Yrotation Xrotation
						End Site
						{
							OFFSET 0.000000 0.000000 0.000000
						}
					}
				}
			}
		}
	}
	JOINT RHipJoint
	{
		OFFSET 0.000000 0.000000 0.000000
		CHANNELS 3 Zrotation Yrotation Xrotation
		JOINT RightUpLeg
		{
			OFFSET -1.305520 -1.794630 0.839290
			CHANNELS 3 Zrotation Yrotation Xrotation
			JOINT RightLeg
			{
				OFFSET -2.542530 -6.985550 0.000000
				CHANNELS 3 Zrotation Yrotation Xrotation
				JOINT RightFoot
				{
					OFFSET -2.568260 -7.056230 0.000000
					CHANNELS 3 Zrotation Yrotation Xrotation
					JOINT RightToeBase
					{
						OFFSET -0.164730 -0.452590 2.363150
						CHANNELS 3 Zrotation Yrotation Xrotation
						End Site
						{
							OFFSET 0.000000 0.000000 0.000000
						}
					}
				}
			}
		}
	}
	JOINT LowerBack
	{
		OFFSET 0.000000 0.000000 0.000000
		CHANNELS 3 Zrotation Yrotation Xrotation
		JOINT Spine
		{
			OFFSET 0.028270 2.035590 -0.193380
			CHANNELS 3 Zrotation Yrotation Xrotation
			JOINT Spine1
			{
				OFFSET 0.056720 2.048850 -0.042750
				CHANNELS 3 Zrotation Yrotation Xrotation
				JOINT Neck
				{
					OFFSET 0.000000 0.000000 0.000000
					CHANNELS 3 Zrotation Yrotation Xrotation
					JOINT Neck1
					{
						OFFSET -0.054170 1.746240 0.172020
						CHANNELS 3 Zrotation Yrotation Xrotation
						JOINT Head
						{
							OFFSET 0.104070 1.761360 -0.123970
							CHANNELS 3 Zrotation Yrotation Xrotation
							End Site
							{
								OFFSET 0.000000 0.000000 0.000000
							}
						}
					}
				}
				JOINT LeftShoulder
				{
					OFFSET 0.000000 0.000000 0.000000
					CHANNELS 3 Zrotation Yrotation Xrotation
					JOINT LeftArm
					{
						OFFSET 3.362410 1.200890 -0.311210
						CHANNELS 3 Zrotation Yrotation Xrotation
						JOINT LeftForeArm
						{
							OFFSET 4.983000 -0.000000 -0.000000
							CHANNELS 3 Zrotation Yrotation Xrotation
							JOINT LeftHand
							{
								OFFSET 3.483560 -0.000000 -0.000000
								CHANNELS 3 Zrotation Yrotation Xrotation
								JOINT LeftFingerBase
								{
									OFFSET 0.000000 0.000000 0.000000
									CHANNELS 3 Zrotation Yrotation Xrotation
									JOINT LeftHandIndex1
									{
										OFFSET 0.715260 -0.000000 -0.000000
										CHANNELS 3 Zrotation Yrotation Xrotation
										End Site
										{
											OFFSET 0.000000 0.000000 0.000000
										}
									}
								}
								JOINT LThumb
								{
									OFFSET 0.000000 0.000000 0.000000
									CHANNELS 3 Zrotation Yrotation Xrotation
									End Site
									{
										OFFSET 0.000000 0.000000 0.000000
									}
								}
							}
						}
					}
				}
				JOINT RightShoulder
				{
					OFFSET 0.000000 0.000000 0.000000
					CHANNELS 3 Zrotation Yrotation Xrotation
					JOINT RightArm
					{
						OFFSET -3.136600 1.374050 -0.404650
						CHANNELS 3 Zrotation Yrotation Xrotation
						JOINT RightForeArm
						{
							OFFSET -5.241900 -0.000000 -0.000000
							CHANNELS 3 Zrotation Yrotation Xrotation
							JOINT RightHand
							{
								OFFSET -3.444170 -0.000000 -0.000000
								CHANNELS 3 Zrotation Yrotation Xrotation
								JOINT RightFingerBase
								{
									OFFSET 0.000000 0.000000 0.000000
									CHANNELS 3 Zrotation Yrotation Xrotation
									JOINT RightHandIndex1
									{
										OFFSET -0.622530 -0.000000 -0.000000
										CHANNELS 3 Zrotation Yrotation Xrotation
										End Site
										{
											OFFSET 0.000000 0.000000 0.000000
										}
									}
								}
								JOINT RThumb
								{
									OFFSET 0.000000 0.000000 0.000000
									CHANNELS 3 Zrotation Yrotation Xrotation
									End Site
									{
										OFFSET 0.000000 0.000000 0.000000
									}
								}
							}
						}
					}
				}
			}
		}
	}
}
MOTION
Frames: 11
Frame Time: 0.008333
-44.172780 17.122332 -1.849146 3.864577 68.457465 5.026098 2.922494 -1.039010 -2.816657 -8.613939 16.767663 -38.967854 11.023061 18.815793 61.386851 0.372321 2.932905 22.017961 0.018800 0.885600 2.434000 -2.261857 0.537515 -1.398269 4.954111 -11.057431 -26.920965 -6.848577 -15.529560 47.176629 4.199603 -13.877792 2.618638 -1.124700 6.736200 -18.936100 -2.864498 1.568299 29.770368 0.592959 2.689878 -1.946509 2.644273 1.137418 1.447671 -6.135000 1.737107 -7.375999 0.256103 4.266222 3.369218 2.391800 3.211600 -2.778700 -1.276791 0.137083 0.529331 -69.060481 27.660947 41.619741 2.805166 -21.619942 -1.582420 0.131546 -3.032041 -13.174940 10.570665 22.344491 4.822600 -7.125000 0.000000 0.000000 -19.565500 54.635100 -4.768000 -0.064747 1.966368 2.224449 45.142558 23.045852 -5.362541 -43.459467 44.219534 -31.493206 0.742738 -0.167198 -7.285649 -23.127150 30.131145 -12.544900 7.125000 0.000000 0.000000 4.188700 2.457800 4.376000 
-43.685656 17.080621 -1.834020 4.579044 68.789470 5.529325 2.945135 -0.827126 -2.776018 -7.459021 16.834423 -37.961780 10.352466 18.410141 58.839008 -0.074612 4.715788 21.038093 0.055200 -1.516100 -4.170200 -2.391985 0.279382 -1.229342 4.096021 -10.914587 -25.591335 -7.323410 -15.755269 48.610517 4.281775 -14.094269 1.389865 -0.980700 6.303700 -17.668100 -4.064965 1.788615 28.927436 0.582463 2.666260 -1.987422 3.243204 1.063065 1.484089 -6.394534 2.144733 -7.329334 0.424871 4.692925 3.910844 2.500400 3.355100 -2.386600 -1.484719 0.229654 0.406820 -67.006048 28.386633 39.075282 2.180854 -21.305338 -1.573231 0.171319 -3.140040 -11.156679 9.691836 22.604059 4.447100 -7.125000 0.000000 0.000000 -20.782400 54.818700 -5.178600 0.149173 1.749419 2.170607 44.859965 20.882117 -6.406459 -41.926328 43.691537 -30.310605 0.854495 -0.044084 -9.053543 -22.755759 28.599809 -11.807900 7.125000 0.000000 0.000000 4.096100 0.712700 4.157300 
-43.192917 16.995824 -1.811789 4.305393 69.592301 5.329659 3.058967 -0.792188 -2.947740 -6.164181 16.977251 -36.923845 9.532778 17.847661 55.959038 -0.200953 5.455650 20.987596 0.397400 -4.047500 -11.210200 -2.487458 -0.078461 -1.093829 3.584845 -11.050861 -24.452278 -7.848735 -16.122084 50.249437 4.339113 -14.326563 0.646790 -1.364400 7.393200 -20.885600 -2.958560 1.891766 27.301045 0.273395 2.512120 -1.865741 -0.283154 1.488036 3.108882 -3.941735 1.922367 -8.423296 0.670492 4.216625 4.385275 2.604000 3.108400 -1.944200 -2.442088 0.995527 0.361037 -60.505402 26.422539 39.321046 1.918455 -20.539808 -1.551091 0.367809 -3.470635 -11.318024 8.853018 22.739239 4.097800 -7.125000 0.000000 0.000000 -22.024400 55.104300 -5.666800 0.275106 1.205793 2.136138 47.204704 19.520876 -9.410221 -39.820493 42.838425 -29.035913 0.917520 -0.010100 -10.511132 -20.859478 27.296114 -10.376300 7.125000 0.000000 0.000000 5.008500 -0.995500 4.939800 
-42.702584 16.879973 -1.775579 3.681074 70.172887 4.480762 3.150804 -0.535720 -2.854378 -4.959300 17.473522 -35.846156 8.576423 17.234756 53.143421 0.206988 4.120184 20.595895 1.002800 -6.372200 -17.868300 -2.556350 -0.336019 -0.915040 3.079697 -11.010358 -22.991178 -8.348549 -16.386823 51.926174 4.033897 -13.600351 0.140069 -1.813300 8.465900 -24.138300 -3.714740 2.073661 26.497687 0.259870 2.617892 -1.891548 0.273888 1.467478 3.323470 -4.418488 2.204070 -8.726122 1.020908 4.463411 4.908974 3.060600 3.217700 -1.483300 -2.786853 1.057878 0.274743 -58.301990 25.906100 36.541620 1.002446 -19.395580 -1.377723 0.325224 -3.577715 -9.619816 8.570350 22.781566 3.973200 -7.125000 0.000000 0.000000 -22.436500 55.181400 -5.824000 0.480167 0.979678 2.009343 47.297865 17.446385 -11.168292 -37.609611 41.922172 -27.320065 0.872321 0.120799 -12.884622 -17.560118 25.891231 -8.265500 7.125000 0.000000 0.000000 6.845200 -3.097500 6.512700 
-42.211221 16.770310 -1.724586 2.780618 70.636228 3.139606 3.255494 -0.173312 -2.605002 -3.736400 18.128104 -34.831874 7.648494 16.573698 50.405392 0.853441 2.240890 20.854723 1.591400 -7.957500 -22.585000 -2.589684 -0.584580 -0.642176 2.641982 -10.851488 -21.322852 -8.821957 -16.571806 53.501285 3.711901 -12.820140 -0.049714 -2.201600 9.273900 -26.655900 -5.221591 2.421230 26.550072 0.351159 2.888714 -2.079556 2.307536 1.320970 2.201893 -5.883564 2.684027 -8.521772 1.514776 4.972364 5.514072 3.750100 3.399100 -0.776300 -2.876471 0.714927 0.097461 -57.362894 26.456995 32.865749 0.015509 -18.273076 -1.229273 0.159216 -3.613426 -7.444154 8.607865 22.678110 3.993700 -7.125000 0.000000 0.000000 -22.314200 55.118400 -5.754900 0.702473 1.022757 1.764793 46.735045 14.057808 -12.145271 -35.603360 41.060182 -25.720605 0.767399 0.279551 -15.980943 -13.528822 24.631634 -6.047600 7.125000 0.000000 0.000000 9.238700 -5.075500 8.498800 
-41.712981 16.661679 -1.673479 0.912856 71.458798 1.226732 3.503425 0.066815 -2.537567 -2.507030 18.718061 -34.382161 6.898352 15.937798 47.957725 1.417208 0.855101 21.738931 1.759700 -8.346500 -23.771700 -2.583037 -0.840969 -0.366902 2.590870 -10.986240 -19.957608 -9.263176 -16.761979 54.942406 3.604183 -12.613266 -0.177843 -2.391500 9.637900 -27.811900 -5.593192 2.623354 25.961843 0.322165 3.007473 -2.207588 2.541664 1.362217 1.691743 -6.026352 2.765458 -8.418672 1.992983 4.901620 6.063518 4.336000 3.310600 -0.205400 -3.264051 0.671145 -0.025795 -54.501032 25.879735 30.667245 -0.581607 -17.300522 -1.144575 0.058150 -3.763681 -6.867413 8.871950 22.627396 4.163600 -7.125000 0.000000 0.000000 -22.025800 55.264600 -5.754900 0.897685 0.915113 1.551724 47.386715 10.791295 -13.988470 -33.307546 40.020836 -24.017691 0.701523 0.362705 -18.908062 -10.210172 23.435549 -4.383900 7.125000 0.000000 0.000000 11.250700 -6.705800 10.060700 
-41.211075 16.550411 -1.624778 -0.641605 72.540362 -0.051942 3.781480 0.194980 -2.613205 -1.705923 19.273149 -34.450074 6.358007 15.435265 46.020099 1.724289 0.269401 22.341295 1.738200 -8.298100 -23.623200 -2.619279 -1.082646 -0.181105 2.494625 -11.451216 -18.905932 -9.726652 -16.942704 56.294300 3.673902 -12.904432 -0.079972 -2.492500 9.824200 -28.409300 -5.641478 2.703641 24.573091 0.217342 2.994378 -2.232409 1.926256 1.448889 2.074028 -5.593294 2.574828 -8.452070 2.624155 4.453222 6.470798 4.517000 3.108800 0.023900 -3.854390 0.883871 -0.061768 -50.708117 24.322668 30.009635 -0.761770 -16.824837 -1.137952 0.028782 -4.042573 -7.904095 9.490605 22.997230 4.607400 -7.125000 0.000000 0.000000 -21.675100 55.994400 -6.047900 1.040929 0.617157 1.423501 48.650315 8.339433 -16.768548 -30.558904 38.612177 -21.890796 0.776740 0.447728 -22.122842 -9.170593 21.899725 -3.754200 7.125000 0.000000 0.000000 11.798900 -8.324100 10.190700 
-40.710659 16.442582 -1.581348 -1.840233 73.634360 -0.961885 4.025390 0.342163 -2.646599 -1.082934 19.582114 -34.654746 6.059651 15.106952 44.696650 1.727653 0.559728 22.424813 2.143900 -9.159600 -26.296000 -2.694431 -1.280535 -0.009994 2.291954 -12.102705 -18.064685 -10.239708 -17.090335 57.710350 3.680663 -13.034543 0.375992 -2.548500 9.925500 -28.735800 -6.469002 2.717469 23.496145 0.220596 2.888733 -2.318131 2.751751 1.315196 2.028858 -6.340154 2.565389 -8.488136 3.226029 4.368463 6.845772 5.231200 3.071400 0.313600 -4.235040 0.879415 -0.138589 -48.557424 23.456907 28.875464 -0.833323 -16.781075 -1.202566 -0.081261 -4.279734 -8.800440 10.552263 23.458942 5.318200 -7.125000 0.000000 0.000000 -20.829000 56.864200 -6.241900 1.198400 0.470061 1.262187 48.931090 6.166587 -19.312577 -27.759111 36.918910 -19.556690 0.877176 0.550993 -26.537940 -8.520250 20.668038 -3.372400 7.125000 0.000000 0.000000 12.108100 -9.566100 10.163200 
-40.218149 16.324210 -1.541929 -4.413223 74.653410 -3.161571 4.361813 0.461122 -2.748114 -0.129690 19.606062 -34.820350 5.982256 14.904408 43.941815 1.604605 1.088228 22.078415 2.829400 -10.413700 -30.327000 -2.726174 -1.426502 0.152256 2.451200 -12.608550 -17.476142 -10.784022 -17.299671 59.305795 3.686819 -13.175976 0.922427 -2.500900 9.839500 -28.458600 -6.916896 2.609294 22.453844 0.219734 2.708487 -2.387804 3.356615 1.175030 2.094877 -7.086851 2.560994 -8.559154 3.875304 4.315394 7.151423 6.058900 3.071400 0.513400 -4.645183 0.879531 -0.196013 -46.551045 22.407161 27.694531 -0.752093 -16.871306 -1.307959 -0.188574 -4.523616 -9.786569 11.613719 23.958059 6.071000 -7.125000 0.000000 0.000000 -19.984900 57.781200 -6.422000 1.306236 0.334881 1.129257 49.362587 4.534969 -22.241394 -25.016089 35.073280 -17.347875 0.873505 0.602373 -31.389142 -6.453462 19.506535 -2.507700 7.125000 0.000000 0.000000 13.411300 -10.821600 10.967400 
-39.732400 16.194837 -1.505718 -7.280274 75.602550 -5.717257 4.679652 0.537891 -2.874389 0.993959 19.187020 -34.703852 6.007147 14.821310 43.664139 1.545756 1.268086 21.621226 3.285700 -11.143800 -32.766400 -2.772965 -1.547648 0.257801 2.613604 -12.990860 -16.972212 -11.398672 -17.553173 61.118844 3.591107 -13.057774 1.884493 -2.159100 9.189900 -26.391000 -7.221300 2.584021 21.415436 0.180508 2.665097 -2.406755 3.482771 1.124796 2.446920 -7.093002 2.299533 -8.751253 4.328601 3.866643 7.335195 6.534700 2.882400 0.674100 -5.072914 0.901456 -0.206390 -44.176388 20.530231 26.580111 -0.673253 -16.792137 -1.405481 -0.280978 -4.759341 -10.713509 12.208715 24.230154 6.561300 -7.125000 0.000000 0.000000 -19.467700 58.380300 -6.530400 1.499054 0.172466 1.047939 50.181247 3.297675 -25.987153 -22.398188 33.107463 -15.296797 0.840465 0.596829 -35.738527 -4.206898 18.387628 -1.653500 7.125000 0.000000 0.000000 14.892600 -11.989700 11.892800 
-39.256964 16.069819 -1.479363 -10.144250 76.627418 -8.449762 4.902634 0.616812 -2.875321 2.220866 18.239698 -34.272051 6.069478 14.814016 43.772815 1.645538 0.745697 20.811086 3.686600 -11.731200 -34.787700 -2.841717 -1.664297 0.402228 2.686795 -13.467157 -16.607474 -12.115067 -17.794616 63.112595 3.402425 -12.763251 3.868495 -1.865300 8.579600 -24.488800 -7.974562 2.541214 21.328384 0.228100 2.479030 -2.558790 4.454377 0.943046 1.466826 -7.425356 2.019414 -8.092939 4.659079 3.464967 7.321926 6.802800 2.657200 0.715700 -5.269134 0.651739 -0.215627 -42.784293 19.528150 25.191911 -0.613382 -16.757796 -1.534085 -0.448958 -4.893638 -11.001781 12.664441 24.225993 6.912600 -7.125000 0.000000 0.000000 -18.821100 58.592800 -6.400100 1.714671 0.320982 0.945848 50.587850 1.402135 -29.010278 -20.263490 31.279277 -13.545360 0.795400 0.509178 -39.660612 -1.888058 17.865719 -0.871100 7.125000 0.000000 0.000000 16.452300 -12.511100 13.060400 
